<svg id="Шар_1" data-name="Шар 1" xmlns="http://www.w3.org/2000/svg" viewBox="0 0 32 32"><defs><style>.cls-1{fill:#333;}.cls-2{fill:#fff;}</style></defs><title>destroyer-pip</title><rect class="cls-1" x="11.12" y="6.12" width="9.75" height="9.75" transform="translate(-3.09 14.54) rotate(-45)"/><path class="cls-2" d="M16,4.28,22.72,11,16,17.72,9.28,11,16,4.28m0-.35L8.93,11,16,18.07,23.07,11,16,3.93Z"/><rect class="cls-1" x="4.12" y="13.12" width="9.75" height="9.75" transform="translate(-10.09 11.64) rotate(-45)"/><path class="cls-2" d="M9,11.28,15.72,18,9,24.72,2.28,18,9,11.28m0-.35L1.93,18,9,25.07,16.07,18,9,10.93Z"/><rect class="cls-1" x="18.12" y="13.12" width="9.75" height="9.75" transform="translate(-5.99 21.54) rotate(-45)"/><path class="cls-2" d="M23,11.28,29.72,18,23,24.72,16.28,18,23,11.28m0-.35L15.93,18,23,25.07,30.07,18,23,10.93Z"/></svg>