<svg id="Шар_1" data-name="Шар 1" xmlns="http://www.w3.org/2000/svg" viewBox="0 0 32 32"><defs><style>.cls-1{fill:#333;}.cls-2{fill:#fff;}</style></defs><title>battleship-pip</title><rect class="cls-1" x="11.12" y="4.12" width="9.75" height="9.75" transform="translate(-1.68 13.95) rotate(-45)"/><path class="cls-2" d="M16,2.28,22.72,9,16,15.72,9.28,9,16,2.28m0-.35L8.93,9,16,16.07,23.07,9,16,1.93Z"/><rect class="cls-1" x="4.12" y="11.12" width="9.75" height="9.75" transform="translate(-8.68 11.05) rotate(-45)"/><path class="cls-2" d="M9,9.28,15.72,16,9,22.72,2.28,16,9,9.28m0-.35L1.93,16,9,23.07,16.07,16,9,8.93Z"/><rect class="cls-1" x="18.12" y="11.12" width="9.75" height="9.75" transform="translate(-4.58 20.95) rotate(-45)"/><path class="cls-2" d="M23,9.28,29.72,16,23,22.72,16.28,16,23,9.28m0-.35L15.93,16,23,23.07,30.07,16,23,8.93Z"/><rect class="cls-1" x="11.12" y="18.12" width="9.75" height="9.75" transform="translate(-11.58 18.05) rotate(-45)"/><path class="cls-2" d="M16,16.28,22.72,23,16,29.72,9.28,23,16,16.28m0-.35L8.93,23,16,30.07,23.07,23,16,15.93Z"/></svg>